<?xml version="1.0" encoding="iso-8859-1"?>
<!-- Uploaded to: SVG Repo, www.svgrepo.com, Generator: SVG Repo Mixer Tools -->
<svg height="800px" width="800px" version="1.1" id="Layer_1" xmlns="http://www.w3.org/2000/svg" xmlns:xlink="http://www.w3.org/1999/xlink" 
	 viewBox="0 0 512 512" xml:space="preserve">
<path style="fill:#C7C5CB;" d="M170.741,503.744L35.888,493.318c-11.978-0.926-21.386-10.637-21.933-22.639L8.054,340.991
	c-0.304-6.679,2.216-13.177,6.944-17.904l22.775-22.775l0.937-0.937l20.208-20.208l62.862-62.862c9.291-9.291,24.355-9.291,33.646,0
	l140.433,140.434c9.291,9.291,9.291,24.355,0,33.646L189.397,496.847C184.485,501.76,177.669,504.279,170.741,503.744z"/>
<path style="fill:#AEADB3;" d="M295.859,356.739l-18.29-18.29c9.291,9.291,9.291,24.355,0,33.646L171.107,478.557
	c-4.913,4.913-11.729,7.433-18.657,6.897L17.598,475.028c-1.068-0.082-2.107-0.258-3.129-0.476
	c2.157,10.158,10.762,17.943,21.419,18.766l134.853,10.426c6.928,0.535,13.744-1.984,18.657-6.897l106.462-106.462
	C305.15,381.094,305.15,366.03,295.859,356.739z"/>
<path style="fill:#D8D8DA;" d="M174.323,365.811c-3.319,2.2-7.121,3.363-10.993,3.363h-0.001c-7.286,0-14.001-4.041-17.525-10.545
	c-3.497-6.452-3.165-14.017,0.889-20.236l27.72-42.537l0,0c-19.777-19.777-51.841-19.777-71.617,0l-27.585,24.43
	c-19.225,17.026-28.996,42.322-26.206,67.851l5.7,52.171c0.737,6.741,6.151,12.013,12.909,12.569l57.383,4.724
	c21.498,1.77,42.787-5.311,58.943-19.604l32.509-28.763c19.701-19.701,19.701-51.641,0-71.342l0,0L174.323,365.811z"/>
<path style="fill:#C7C5CB;" d="M361.832,119.054L199.083,281.804c-0.345,0.345-0.652,0.724-0.919,1.133l-40.711,62.47
	c-4.166,6.393,3.41,13.911,9.771,9.695l62.029-41.113c0.391-0.259,0.755-0.557,1.087-0.889l162.769-162.769L361.832,119.054z"/>
<path style="fill:#AEADB3;" d="M374.642,131.863L211.873,294.632c-0.332,0.332-0.696,0.63-1.087,0.889l-36.653,24.294
	l-16.678,25.592c-4.166,6.393,3.41,13.911,9.771,9.695l62.029-41.112c0.391-0.259,0.755-0.557,1.087-0.889L393.11,150.332
	L374.642,131.863z"/>
<path style="fill:#FEA921;" d="M500.044,138.465L373.7,12.12c-5.247-5.247-13.755-5.247-19.003,0l-28.105,28.105
	c-4.352,4.352-5.19,11.105-2.036,16.389l37.276,62.44l31.278,31.278l62.44,37.276c5.285,3.155,12.037,2.316,16.389-2.036
	l28.105-28.105C505.292,152.22,505.292,143.712,500.044,138.465z M458.618,148.775c-5.436,5.436-14.248,5.436-19.684,0
	l-80.753-80.753c-5.436-5.436-5.436-14.248,0-19.684l0,0c5.436-5.436,14.248-5.436,19.684,0l80.753,80.753
	C464.053,134.527,464.053,143.339,458.618,148.775L458.618,148.775z"/>
<g>
	<path style="fill:#1A1A1A;" d="M383.544,42.661c-4.146-4.146-9.657-6.428-15.52-6.428c-5.863,0-11.374,2.283-15.52,6.428
		c-8.558,8.558-8.558,22.482,0,31.039l80.753,80.753c4.146,4.145,9.657,6.428,15.52,6.428c5.863,0,11.374-2.283,15.52-6.428
		c8.557-8.558,8.557-22.482,0-31.039L383.544,42.661z M452.94,143.096c-1.112,1.112-2.591,1.725-4.164,1.725
		s-3.051-0.612-4.164-1.725L363.86,62.344c-2.297-2.297-2.297-6.032,0-8.327c1.112-1.112,2.59-1.725,4.164-1.725
		c1.573,0,3.051,0.612,4.164,1.725l80.753,80.753C455.236,137.065,455.236,140.801,452.94,143.096z"/>
	<path style="fill:#1A1A1A;" d="M505.723,132.786L379.378,6.443c-4.054-4.054-9.445-6.288-15.179-6.288
		c-5.734,0-11.125,2.232-15.179,6.288l-28.105,28.104c-6.962,6.961-8.3,17.729-3.253,26.183l34.071,57.07L210.004,259.528
		l-48.9-48.9c-6.011-6.011-14.002-9.321-22.5-9.321c-8.5,0-16.491,3.31-22.5,9.321l-49.908,49.908c-3.136,3.136-3.136,8.22,0,11.355
		c3.136,3.136,8.22,3.136,11.355,0l49.908-49.908c2.977-2.977,6.936-4.617,11.145-4.617s8.168,1.639,11.145,4.617l48.9,48.9
		l-5.242,5.242c-0.737,0.737-1.399,1.553-1.968,2.426l-40.71,62.472c-3.942,6.048-3.116,13.825,2.01,18.91
		c0.346,0.343,0.706,0.663,1.074,0.966c0.121,0.1,0.247,0.187,0.369,0.283c0.253,0.196,0.507,0.389,0.769,0.566
		c0.15,0.102,0.304,0.195,0.456,0.29c0.245,0.154,0.491,0.303,0.742,0.441c0.163,0.09,0.328,0.174,0.494,0.258
		c0.252,0.126,0.505,0.245,0.762,0.358c0.168,0.073,0.335,0.145,0.505,0.211c0.267,0.105,0.536,0.198,0.808,0.287
		c0.163,0.054,0.324,0.109,0.489,0.156c0.304,0.088,0.61,0.16,0.919,0.228c0.135,0.03,0.268,0.066,0.404,0.093
		c0.446,0.086,0.896,0.154,1.348,0.198c0.01,0.001,0.019,0.001,0.029,0.002c0.441,0.042,0.883,0.062,1.327,0.064
		c0.028,0,0.057,0.004,0.085,0.004c0.317,0,0.634-0.014,0.951-0.034c0.042-0.003,0.084-0.001,0.125-0.004
		c0.389-0.028,0.777-0.075,1.165-0.134c0.132-0.02,0.262-0.049,0.394-0.073c0.259-0.047,0.517-0.096,0.775-0.157
		c0.152-0.035,0.303-0.078,0.454-0.119c0.238-0.064,0.474-0.133,0.71-0.209c0.153-0.049,0.306-0.102,0.459-0.156
		c0.234-0.085,0.468-0.176,0.7-0.272c0.146-0.061,0.291-0.12,0.436-0.185c0.249-0.112,0.496-0.237,0.742-0.365
		c0.121-0.063,0.243-0.121,0.363-0.187c0.363-0.2,0.721-0.414,1.073-0.647l62.03-41.113c0.838-0.557,1.623-1.198,2.326-1.903
		l5.262-5.261l48.9,48.9c2.977,2.977,4.617,6.936,4.617,11.145s-1.639,8.168-4.617,11.145L183.722,491.171
		c-3.259,3.258-7.761,4.922-12.359,4.569L36.509,485.314c-7.923-0.612-14.169-7.06-14.531-14.997l-5.902-129.688
		c-0.201-4.414,1.475-8.736,4.599-11.862l35.596-35.596c3.136-3.136,3.136-8.22,0-11.355c-3.136-3.136-8.22-3.136-11.355,0
		L9.32,317.41c-6.308,6.308-9.694,15.036-9.287,23.947l5.902,129.688c0.729,16.026,13.341,29.043,29.335,30.28l134.853,10.426
		c0.824,0.064,1.646,0.095,2.465,0.095c8.408,0,16.492-3.324,22.489-9.321l106.462-106.462c6.011-6.009,9.321-14.001,9.321-22.5
		c0-8.499-3.31-16.49-9.321-22.5l-48.9-48.901l82.366-82.365c3.136-3.136,3.136-8.22,0-11.355c-3.135-3.136-8.219-3.136-11.355,0
		l-93.162,93.161l-5.75,5.749l-57.907,38.381l38.009-58.325l10.846-10.846c0.002-0.001,0.003-0.003,0.004-0.005l146.147-146.146
		l19.921,19.921l-36.427,36.427c-3.136,3.136-3.136,8.22,0,11.355c3.136,3.136,8.22,3.136,11.355,0l37.682-37.682l57.07,34.07
		c3.325,1.985,7.128,3.034,10.999,3.034l0,0c5.736,0,11.129-2.233,15.184-6.288l28.105-28.104
		C514.093,154.775,514.093,141.156,505.723,132.786z M494.366,151.79l-28.105,28.104c-1.021,1.021-2.381,1.583-3.828,1.583
		c-0.973,0-1.93-0.264-2.768-0.764l-61.584-36.765l-29.866-29.866l-36.765-61.584c-1.272-2.129-0.935-4.841,0.819-6.596
		l28.105-28.104c1.021-1.021,2.379-1.583,3.824-1.583c1.444,0,2.802,0.562,3.823,1.583l126.345,126.345
		C496.475,146.25,496.475,149.682,494.366,151.79z"/>
</g>
</svg>